<?xml version="1.0" encoding="UTF-8"?>
<svg id="Layer_2" data-name="Layer 2" xmlns="http://www.w3.org/2000/svg" viewBox="0 0 303.55 303.55">
  <defs>
    <style>
      .cls-1 {
        fill: #ebeaf0;
      }

      .cls-2 {
        fill: #563a57;
      }
    </style>
  </defs>
  <g id="Layer_1-2" data-name="Layer 1">
    <g>
      <path class="cls-2" d="M303.55,151.77C303.55,67.95,235.6,0,151.78,0S0,67.95,0,151.77s67.96,151.78,151.78,151.78,151.77-67.95,151.77-151.78h0Z"/>
      <path class="cls-1" d="M295.27,151.77c0-79.25-64.25-143.49-143.49-143.49S8.28,72.53,8.28,151.77s64.24,143.5,143.49,143.5,143.49-64.25,143.49-143.5h0Z"/>
      <path class="cls-2" d="M159.18,151.77c0-4.08-3.31-7.4-7.4-7.4s-7.41,3.32-7.41,7.4,3.32,7.41,7.41,7.41,7.4-3.32,7.4-7.41h0Z"/>
      <polygon class="cls-2" points="209.42 61.71 209.42 38.69 204.18 38.69 204.18 35.89 212.33 35.89 212.33 61.71 209.42 61.71 209.42 61.71"/>
      <path class="cls-2" d="M258.42,86.97c0,2.47-1.85,5.45-4.57,8.37l-7.93,8.41h13.98v2.8h-17.74v-2.43l9.66-10.51c2.18-2.18,3.53-4.57,3.53-6.24,0-2.51-1.91-4.02-5.16-4.02-2.36,0-4.98,1.22-7.04,3.21l-1.29-2.36c2.51-2.24,5.64-3.57,8.7-3.57,4.76,0,7.86,2.47,7.86,6.34h0Z"/>
      <path class="cls-2" d="M269.23,149.8c4.64.23,7.78,2.73,7.78,6.86,0,4.76-3.5,8.08-9.03,8.08-2.99,0-6.05-1.07-8.19-2.61l1.29-2.48c1.84,1.51,4.28,2.44,6.67,2.44,4.02,0,6.38-2.18,6.38-5.31s-2.4-4.91-6.42-4.91h-3.17v-1.88l7.56-8.37h-11.17v-2.81h14.86v2l-7.99,8.88,1.44.11h0Z"/>
      <polygon class="cls-2" points="255.41 213.24 255.41 206.42 258.18 206.42 258.18 213.24 262.09 213.24 262.09 216.08 258.18 216.08 258.18 222.87 255.41 222.87 255.41 216.08 243.03 216.08 243.03 213.65 252.28 197.05 255.2 197.05 246.2 213.24 255.41 213.24 255.41 213.24"/>
      <path class="cls-2" d="M205.63,242.46v7.26c1.33-.22,3.17-.36,4.36-.36,5.42,0,8.88,3.2,8.88,7.63,0,5.16-3.57,8.51-9.11,8.51-2.84,0-6.27-1.11-8.7-2.8l1.21-2.51c2.15,1.62,4.87,2.59,7.2,2.59,3.87,0,6.26-2.14,6.26-5.61,0-3.06-2.39-4.98-6.19-4.98-1.7,0-4.79.26-6.64.63v-13.2h14.97v2.84h-12.25Z"/>
      <path class="cls-2" d="M145.51,272.59c-.03,2.48,1.89,5.65,6.27,5.65,3.65,0,6.16-2.22,6.16-5.86,0-3.43-2.28-5.57-5.94-5.57-4.09,0-6.53,2.73-6.49,5.78h0ZM159.82,256.73l-1.18,2.36c-1.7-.99-3.94-1.59-5.94-1.59-5.53,0-8.3,4.54-7.89,11.51,1.14-3.03,3.9-4.72,7.7-4.72,5.05,0,8.19,3.13,8.19,8.12,0,5.27-3.43,8.55-8.74,8.55-6.28,0-10.07-4.53-10.07-12.5s4.05-13.57,10.62-13.57c2.36,0,5.2.74,7.3,1.84h0Z"/>
      <polygon class="cls-2" points="91.82 265.46 88.68 265.46 99.31 242.5 87.28 242.5 87.28 246.25 84.63 246.25 84.63 239.65 102.55 239.65 102.55 242.12 91.82 265.46 91.82 265.46"/>
      <path class="cls-2" d="M45.28,203.6c0,2.77,2.13,4.4,5.75,4.4s5.71-1.63,5.71-4.4-2.14-4.38-5.71-4.38-5.75,1.61-5.75,4.38h0ZM44.28,215.37c0,3.24,2.51,5.12,6.75,5.12s6.71-1.88,6.71-5.12c0-3.06-2.51-4.9-6.74-4.9s-6.72,1.85-6.72,4.9h0ZM59.29,203.42c0,2.65-1.59,4.61-4.2,5.64,3.35,1,5.42,3.32,5.42,6.57,0,4.61-3.65,7.37-9.48,7.37s-9.55-2.77-9.55-7.3c0-3.28,2.13-5.64,5.57-6.64-2.69-1.06-4.31-3.07-4.31-5.72,0-4.02,3.2-6.41,8.26-6.41s8.29,2.44,8.29,6.49h0Z"/>
      <path class="cls-2" d="M41.22,147.11c0-2.47-1.88-5.64-6.31-5.64-3.65,0-6.16,2.17-6.16,5.87,0,3.43,2.28,5.57,5.94,5.57,4.09,0,6.53-2.73,6.53-5.79h0ZM26.87,162.97l1.18-2.36c1.69,1,3.95,1.59,5.94,1.59,5.53,0,8.3-4.54,7.89-11.5-1.14,3.02-3.9,4.72-7.7,4.72-5.05,0-8.19-3.14-8.19-8.12,0-5.28,3.43-8.56,8.74-8.56,6.27,0,10.07,4.54,10.07,12.47s-4.05,13.61-10.62,13.61c-2.36,0-5.2-.74-7.3-1.85h0Z"/>
      <polygon class="cls-2" points="42.28 107.92 42.28 84.9 37.04 84.9 37.04 82.1 45.19 82.1 45.19 107.92 42.28 107.92 42.28 107.92"/>
      <path class="cls-2" d="M55.45,95.01c0,6.97,2.65,10.47,7.66,10.47s7.67-3.5,7.67-10.47-2.65-10.48-7.67-10.48-7.66,3.47-7.66,10.48h0ZM73.77,95.01c0,8.33-3.79,12.98-10.66,12.98s-10.66-4.65-10.66-12.98,3.8-12.98,10.66-12.98,10.66,4.65,10.66,12.98h0Z"/>
      <polygon class="cls-2" points="85.63 65.55 85.63 42.54 80.4 42.54 80.4 39.74 88.55 39.74 88.55 65.55 85.63 65.55 85.63 65.55"/>
      <polygon class="cls-2" points="103.87 65.55 103.87 42.54 98.64 42.54 98.64 39.74 106.79 39.74 106.79 65.55 103.87 65.55 103.87 65.55"/>
      <polygon class="cls-2" points="140.23 48.86 140.23 25.85 134.99 25.85 134.99 23.04 143.14 23.04 143.14 48.86 140.23 48.86 140.23 48.86"/>
      <path class="cls-2" d="M167.09,29.28c0,2.46-1.85,5.45-4.57,8.37l-7.93,8.41h13.98v2.81h-17.74v-2.44l9.66-10.51c2.18-2.17,3.54-4.57,3.54-6.23,0-2.51-1.92-4.03-5.16-4.03-2.36,0-4.98,1.22-7.04,3.21l-1.29-2.36c2.5-2.26,5.65-3.58,8.7-3.58,4.75,0,7.86,2.47,7.86,6.35h0Z"/>
    </g>
  </g>
</svg>