<?xml version="1.0" encoding="UTF-8"?>
<svg id="Layer_2" data-name="Layer 2" xmlns="http://www.w3.org/2000/svg" viewBox="0 0 331.79 302.2">
  <defs>
    <style>
      .cls-1 {
        fill: #e68546;
      }

      .cls-2 {
        fill: #beb1be;
      }

      .cls-3 {
        fill: #efa253;
      }

      .cls-4 {
        fill: #de733f;
      }
    </style>
  </defs>
  <g id="Layer_1-2" data-name="Layer 1">
    <g>
      <path class="cls-3" d="M329.42,302.2H2.37c-1.31,0-2.37-.75-2.37-1.67V10.88c0-.92,1.06-1.67,2.37-1.67h327.05c1.31,0,2.37.75,2.37,1.67v289.66c0,.92-1.06,1.67-2.37,1.67h0Z"/>
      <polygon class="cls-4" points="13.16 302.2 6.14 302.2 6.14 9.21 13.16 9.21 13.16 302.2 13.16 302.2"/>
      <polygon class="cls-1" points="59.91 302.2 52.9 302.2 52.9 9.21 59.91 9.21 59.91 302.2 59.91 302.2"/>
      <polygon class="cls-4" points="74.88 302.2 67.87 302.2 67.87 9.21 74.88 9.21 74.88 302.2 74.88 302.2"/>
      <polygon class="cls-4" points="110.91 302.2 102.6 302.2 102.6 9.21 110.91 9.21 110.91 302.2 110.91 302.2"/>
      <polygon class="cls-1" points="144.01 302.2 129.27 302.2 129.27 9.21 144.01 9.21 144.01 302.2 144.01 302.2"/>
      <polygon class="cls-1" points="182.61 302.2 172.37 302.2 172.37 9.21 182.61 9.21 182.61 302.2 182.61 302.2"/>
      <polygon class="cls-1" points="197.11 302.2 191.15 302.2 191.15 9.21 197.11 9.21 197.11 302.2 197.11 302.2"/>
      <polygon class="cls-1" points="214.19 302.2 210.15 302.2 210.15 9.21 214.19 9.21 214.19 302.2 214.19 302.2"/>
      <polygon class="cls-1" points="232.79 302.2 222.49 302.2 222.49 9.21 232.79 9.21 232.79 302.2 232.79 302.2"/>
      <polygon class="cls-1" points="244.42 302.2 239.28 302.2 239.28 9.21 244.42 9.21 244.42 302.2 244.42 302.2"/>
      <polygon class="cls-4" points="264.41 302.2 259.26 302.2 259.26 9.21 264.41 9.21 264.41 302.2 264.41 302.2"/>
      <polygon class="cls-1" points="286.39 302.2 272.2 302.2 272.2 9.21 286.39 9.21 286.39 302.2 286.39 302.2"/>
      <polygon class="cls-1" points="308.93 302.2 298.33 302.2 298.33 9.21 308.93 9.21 308.93 302.2 308.93 302.2"/>
      <polygon class="cls-4" points="323.98 302.2 318.21 302.2 318.21 9.21 323.98 9.21 323.98 302.2 323.98 302.2"/>
      <polygon class="cls-1" points="155.3 302.2 150.68 302.2 150.68 9.21 155.3 9.21 155.3 302.2 155.3 302.2"/>
      <polygon class="cls-4" points="163.54 302.2 160.21 302.2 160.21 9.21 163.54 9.21 163.54 302.2 163.54 302.2"/>
      <polygon class="cls-1" points="120.38 302.2 116.23 302.2 116.23 9.21 120.38 9.21 120.38 302.2 120.38 302.2"/>
      <polygon class="cls-1" points="96.87 302.2 84.36 302.2 84.36 9.21 96.87 9.21 96.87 302.2 96.87 302.2"/>
      <polygon class="cls-1" points="37.69 302.2 21.79 302.2 21.79 9.21 37.69 9.21 37.69 302.2 37.69 302.2"/>
      <path class="cls-2" d="M11.93,6.77c-.46,1.4-1.38,2.34-2.54,2.44-.07.02-.13.02-.2.02-.05,0-.12,0-.16-.02-1.66-.12-2.9-2.06-2.9-4.59S7.37.13,9.03.02c.05-.02.12-.02.16-.02.07,0,.12,0,.18.02,1,.07,1.84.79,2.35,1.91h-1.88c-.23-.31-.48-.46-.66-.46-.46,0-1.38,1.1-1.38,3.14s.92,3.14,1.38,3.14c.26,0,.66-.35.95-.99h1.78Z"/>
      <path class="cls-2" d="M18.07,6.77c-.46,1.4-1.4,2.35-2.54,2.44-.05.02-.12.02-.18.02s-.12,0-.18-.02c-1.66-.12-2.9-2.06-2.9-4.59S13.51.13,15.17.02c.07-.02.12-.02.18-.02s.12,0,.16.02c1,.07,1.84.79,2.35,1.91h-1.88c-.23-.31-.48-.46-.64-.46-.48,0-1.4,1.1-1.4,3.14s.92,3.14,1.4,3.14c.26,0,.66-.35.94-.99h1.78Z"/>
      <path class="cls-2" d="M24.22,6.75c-.46,1.42-1.42,2.37-2.55,2.45-.05.02-.12.02-.18.02-.05,0-.12,0-.16-.02-1.68-.12-2.91-2.06-2.91-4.59S19.65.13,21.33.02c.05-.02.12-.02.16-.02s.12,0,.16.02c1,.07,1.84.79,2.35,1.89h-1.88c-.23-.3-.46-.44-.64-.44-.48,0-1.4,1.1-1.4,3.14s.92,3.14,1.4,3.14c.26,0,.67-.35.97-1h1.76Z"/>
      <path class="cls-2" d="M30.36,6.75c-.46,1.42-1.4,2.37-2.55,2.45-.05.02-.12.02-.18.02-.05,0-.12,0-.16-.02-1.66-.12-2.9-2.06-2.9-4.59S25.8.13,27.47.02c.05-.02.12-.02.16-.02.07,0,.12,0,.16.02,1,.07,1.84.79,2.35,1.89h-1.88c-.23-.3-.46-.44-.64-.44-.46,0-1.38,1.1-1.38,3.14s.92,3.14,1.38,3.14c.26,0,.67-.35.97-1h1.76Z"/>
      <path class="cls-2" d="M36.5,6.73c-.46,1.42-1.4,2.39-2.54,2.47-.05.02-.12.02-.18.02s-.12,0-.18-.02c-1.66-.12-2.9-2.06-2.9-4.59S31.94.13,33.61.02c.07-.02.12-.02.18-.02s.12,0,.16.02c.99.07,1.83.77,2.34,1.88h-1.89c-.21-.28-.44-.43-.61-.43-.48,0-1.4,1.1-1.4,3.14s.92,3.14,1.4,3.14c.26,0,.66-.35.95-1.02h1.76Z"/>
      <path class="cls-2" d="M42.66,6.73c-.46,1.42-1.42,2.39-2.55,2.47-.05.02-.12.02-.18.02-.05,0-.12,0-.16-.02-1.68-.12-2.91-2.06-2.91-4.59S38.08.13,39.76.02c.05-.02.12-.02.16-.02s.12,0,.16.02c.99.07,1.83.77,2.35,1.88h-1.91c-.21-.28-.43-.43-.61-.43-.48,0-1.4,1.1-1.4,3.14s.92,3.14,1.4,3.14c.26,0,.67-.35.97-1.02h1.76Z"/>
      <path class="cls-2" d="M48.82,6.72c-.46,1.43-1.42,2.4-2.57,2.49-.05.02-.12.02-.18.02-.05,0-.12,0-.16-.02-1.66-.12-2.91-2.06-2.91-4.59S44.24.13,45.9.02c.05-.02.12-.02.16-.02.07,0,.12,0,.16.02,1,.07,1.83.77,2.34,1.86h-1.89c-.21-.28-.44-.41-.61-.41-.48,0-1.38,1.1-1.38,3.14s.91,3.14,1.38,3.14c.26,0,.69-.36.99-1.04h1.76Z"/>
      <path class="cls-2" d="M54.96,6.72c-.46,1.43-1.4,2.39-2.55,2.49-.07.02-.13.02-.2.02-.05,0-.12,0-.16-.02-1.66-.12-2.9-2.06-2.9-4.59S50.38.13,52.04.02c.05-.02.12-.02.16-.02.07,0,.12,0,.18.02.97.07,1.81.76,2.32,1.84l-1.89.02c-.21-.28-.44-.41-.61-.41-.46,0-1.38,1.1-1.38,3.14s.92,3.14,1.38,3.14c.26,0,.69-.36.99-1.04h1.76Z"/>
      <path class="cls-2" d="M61.1,6.7c-.46,1.43-1.4,2.42-2.55,2.5-.05.02-.12.02-.18.02-.05,0-.12,0-.16-.02-1.68-.12-2.91-2.06-2.91-4.59S56.52.13,58.2.02c.05-.02.12-.02.16-.02s.12,0,.16.02c.99.07,1.81.76,2.32,1.84h-1.89c-.21-.26-.43-.4-.59-.4-.48,0-1.4,1.1-1.4,3.14s.92,3.14,1.4,3.14c.26,0,.67-.36.99-1.05h1.74Z"/>
      <path class="cls-2" d="M67.25,6.7c-.46,1.43-1.42,2.42-2.57,2.5-.05.02-.12.02-.18.02-.05,0-.12,0-.16-.02-1.66-.12-2.91-2.06-2.91-4.59S62.68.13,64.34.02c.05-.02.12-.02.16-.02.07,0,.12,0,.16.02.99.07,1.81.76,2.32,1.83l-1.89.02c-.2-.26-.43-.4-.59-.4-.48,0-1.4,1.1-1.4,3.14s.92,3.14,1.4,3.14c.28,0,.69-.36.99-1.05h1.76Z"/>
      <path class="cls-2" d="M73.41,6.68c-.46,1.45-1.4,2.42-2.57,2.52-.07.02-.13.02-.2.02-.05,0-.12,0-.16-.02-1.66-.12-2.9-2.06-2.9-4.59S68.82.13,70.48.02c.05-.02.12-.02.16-.02.07,0,.12,0,.18.02.97.07,1.81.76,2.3,1.83h-1.89c-.21-.25-.43-.38-.59-.38-.46,0-1.38,1.1-1.38,3.14s.92,3.14,1.38,3.14c.28,0,.69-.36,1-1.07h1.76Z"/>
      <path class="cls-2" d="M79.55,6.68c-.46,1.45-1.42,2.44-2.57,2.52-.05.02-.12.02-.18.02s-.12,0-.18-.02c-1.66-.12-2.9-2.06-2.9-4.59S74.96.13,76.62.02c.07-.02.12-.02.18-.02.05,0,.12,0,.16.02.97.07,1.79.76,2.3,1.81l-1.89.02c-.21-.25-.41-.38-.58-.38-.48,0-1.4,1.1-1.4,3.14s.92,3.14,1.4,3.14c.26,0,.69-.36.99-1.07h1.76Z"/>
      <path class="cls-2" d="M85.71,6.67c-.48,1.48-1.43,2.45-2.6,2.54-.05.02-.1.02-.16.02-.05,0-.12,0-.16-.02-1.68-.12-2.91-2.06-2.91-4.59S81.1.13,82.78.02c.05-.02.12-.02.16-.02.07,0,.12,0,.16.02.97.07,1.81.76,2.3,1.81h-1.91c-.2-.25-.4-.36-.56-.36-.48,0-1.4,1.1-1.4,3.14s.92,3.14,1.4,3.14c.28,0,.71-.38.99-1.09h1.78Z"/>
      <path class="cls-2" d="M91.85,6.67c-.46,1.48-1.42,2.45-2.6,2.54-.05.02-.12.02-.16.02s-.12,0-.16-.02c-1.66-.12-2.91-2.06-2.91-4.59S87.25.13,88.92.02c.05-.02.12-.02.16-.02s.12,0,.16.02c.97.07,1.79.74,2.3,1.79l-1.89.02c-.21-.25-.41-.36-.58-.36-.46,0-1.38,1.1-1.38,3.14s.92,3.14,1.38,3.14c.28,0,.71-.38,1-1.09h1.76Z"/>
      <path class="cls-2" d="M97.99,6.65c-.44,1.47-1.38,2.45-2.57,2.55-.07.02-.13.02-.2.02-.05,0-.12,0-.16-.02-1.66-.12-2.9-2.06-2.9-4.59S93.39.13,95.06.02c.05-.02.12-.02.16-.02.07,0,.12,0,.18.02.95.07,1.78.74,2.29,1.79h-1.91c-.2-.23-.41-.35-.56-.35-.46,0-1.38,1.1-1.38,3.14s.92,3.14,1.38,3.14c.28,0,.71-.38,1.02-1.1h1.74Z"/>
      <path class="cls-2" d="M104.14,6.65c-.46,1.48-1.42,2.47-2.6,2.55-.05.02-.1.02-.16.02-.05,0-.12,0-.16-.02-1.68-.12-2.91-2.06-2.91-4.59S99.53.13,101.21.02c.05-.02.12-.02.16-.02.07,0,.12,0,.16.02.97.07,1.78.74,2.29,1.78h-1.93c-.18-.21-.38-.33-.53-.33-.48,0-1.4,1.1-1.4,3.14s.92,3.14,1.4,3.14c.28,0,.71-.38,1-1.1h1.76Z"/>
      <path class="cls-2" d="M110.3,6.63c-.46,1.5-1.42,2.49-2.62,2.57-.05.02-.12.02-.16.02s-.12,0-.16-.02c-1.66-.12-2.91-2.06-2.91-4.59S105.69.13,107.35.02c.05-.02.12-.02.16-.02s.12,0,.16.02c.97.07,1.79.74,2.3,1.78h-1.93c-.2-.21-.4-.33-.54-.33-.48,0-1.38,1.1-1.38,3.14s.91,3.14,1.38,3.14c.28,0,.72-.38,1.02-1.12h1.76Z"/>
      <path class="cls-2" d="M116.44,6.63c-.44,1.48-1.4,2.47-2.58,2.57-.07.02-.13.02-.2.02-.05,0-.12,0-.16-.02-1.66-.12-2.9-2.06-2.9-4.59S111.83.13,113.49.02c.05-.02.12-.02.16-.02.07,0,.12,0,.18.02.95.07,1.76.72,2.27,1.76h-1.93c-.18-.21-.38-.31-.53-.31-.46,0-1.38,1.1-1.38,3.14s.92,3.14,1.38,3.14c.28,0,.72-.38,1.02-1.12h1.76Z"/>
      <path class="cls-2" d="M122.58,6.62c-.46,1.5-1.42,2.5-2.6,2.58-.05.02-.1.02-.16.02s-.12,0-.18-.02c-1.66-.12-2.9-2.06-2.9-4.59S117.97.13,119.63.02c.07-.02.12-.02.18-.02s.12,0,.16.02c.95.07,1.78.72,2.27,1.76h-1.93c-.18-.21-.36-.31-.51-.31-.48,0-1.4,1.1-1.4,3.14s.92,3.14,1.4,3.14c.28,0,.71-.4,1.02-1.14h1.74Z"/>
      <path class="cls-2" d="M128.74,6.62c-.46,1.5-1.43,2.5-2.62,2.58-.05.02-.12.02-.16.02s-.12,0-.16-.02c-1.66-.12-2.91-2.06-2.91-4.59S124.13.13,125.79.02c.05-.02.12-.02.16-.02s.12,0,.16.02c.95.07,1.76.72,2.27,1.74h-1.93c-.18-.2-.36-.3-.51-.3-.48,0-1.4,1.1-1.4,3.14s.92,3.14,1.4,3.14c.28,0,.72-.4,1.04-1.14h1.74Z"/>
      <path class="cls-2" d="M134.88,6.6c-.44,1.51-1.42,2.52-2.62,2.6-.05.02-.1.02-.16.02-.05,0-.12,0-.16-.02-1.66-.12-2.9-2.06-2.9-4.59s1.23-4.48,2.9-4.59c.05-.02.12-.02.16-.02.07,0,.12,0,.16.02.97.07,1.78.72,2.27,1.74h-1.93c-.18-.2-.36-.3-.51-.3-.46,0-1.38,1.1-1.38,3.14s.92,3.14,1.38,3.14c.28,0,.72-.4,1.04-1.15h1.74Z"/>
      <path class="cls-2" d="M141.02,6.6c-.44,1.51-1.4,2.52-2.6,2.6-.05.02-.1.02-.16.02s-.12,0-.18-.02c-1.66-.12-2.9-2.06-2.9-4.59s1.23-4.48,2.9-4.59c.07-.02.12-.02.18-.02s.12,0,.16.02c.95.07,1.74.72,2.26,1.73h-1.94c-.16-.18-.35-.28-.48-.28-.48,0-1.4,1.1-1.4,3.14s.92,3.14,1.4,3.14c.28,0,.71-.4,1.02-1.15h1.74Z"/>
      <path class="cls-2" d="M147.19,6.58c-.46,1.51-1.43,2.54-2.63,2.62-.05.02-.12.02-.16.02s-.12,0-.16-.02c-1.68-.12-2.91-2.06-2.91-4.59s1.23-4.48,2.91-4.59c.05-.02.12-.02.16-.02s.12,0,.16.02c.95.07,1.76.72,2.27,1.73h-1.96c-.16-.18-.35-.28-.48-.28-.48,0-1.4,1.1-1.4,3.14s.92,3.14,1.4,3.14c.28,0,.72-.4,1.04-1.17h1.76Z"/>
      <path class="cls-2" d="M153.33,6.58c-.46,1.51-1.43,2.54-2.63,2.62-.05.02-.1.02-.16.02-.05,0-.12,0-.16-.02-1.66-.12-2.91-2.06-2.91-4.59s1.25-4.48,2.91-4.59c.05-.02.12-.02.16-.02.07,0,.12,0,.16.02.95.05,1.76.71,2.26,1.71h-1.93c-.2-.18-.36-.26-.49-.26-.48,0-1.38,1.1-1.38,3.14s.91,3.14,1.38,3.14c.28,0,.74-.4,1.05-1.17h1.74Z"/>
      <path class="cls-2" d="M159.47,6.57c-.44,1.51-1.4,2.54-2.6,2.63-.07.02-.13.02-.2.02-.05,0-.12,0-.16-.02-1.66-.12-2.9-2.06-2.9-4.59s1.23-4.48,2.9-4.59c.05-.02.12-.02.16-.02.07,0,.12,0,.18.02.94.07,1.74.71,2.24,1.71h-1.93c-.2-.18-.36-.26-.49-.26-.46,0-1.38,1.1-1.38,3.14s.92,3.14,1.38,3.14c.3,0,.74-.41,1.05-1.19h1.74Z"/>
      <path class="cls-2" d="M165.61,6.57c-.44,1.53-1.42,2.55-2.62,2.63-.05.02-.12.02-.16.02s-.12,0-.16-.02c-1.68-.12-2.91-2.06-2.91-4.59s1.23-4.48,2.91-4.59c.05-.02.12-.02.16-.02s.12,0,.16.02c.94.07,1.73.71,2.24,1.7h-1.94c-.18-.16-.33-.25-.46-.25-.48,0-1.4,1.1-1.4,3.14s.92,3.14,1.4,3.14c.28,0,.72-.41,1.04-1.19h1.74Z"/>
      <path class="cls-2" d="M171.77,6.55c-.44,1.53-1.43,2.57-2.63,2.65-.05.02-.1.02-.16.02-.05,0-.12,0-.16-.02-1.66-.12-2.91-2.06-2.91-4.59s1.25-4.48,2.91-4.59c.05-.02.12-.02.16-.02.07,0,.12,0,.16.02.95.05,1.74.69,2.26,1.7h-1.94c-.18-.16-.35-.25-.48-.25-.48,0-1.4,1.1-1.4,3.14s.92,3.14,1.4,3.14c.3,0,.76-.41,1.05-1.2h1.74Z"/>
      <path class="cls-2" d="M177.91,6.55c-.44,1.51-1.4,2.55-2.6,2.65-.07.02-.13.02-.2.02-.05,0-.12,0-.16-.02-1.66-.12-2.9-2.06-2.9-4.59s1.23-4.48,2.9-4.59c.05-.02.12-.02.16-.02.07,0,.12,0,.18.02.94.07,1.73.69,2.22,1.68h-1.94c-.18-.15-.33-.23-.46-.23-.46,0-1.38,1.1-1.38,3.14s.92,3.14,1.38,3.14c.3,0,.76-.41,1.07-1.2h1.73Z"/>
      <path class="cls-2" d="M184.06,6.54c-.44,1.55-1.43,2.58-2.63,2.67-.05.02-.12.02-.16.02-.07,0-.12,0-.18-.02-1.66-.12-2.9-2.06-2.9-4.59s1.23-4.48,2.9-4.59c.07-.02.12-.02.18-.02.05,0,.12,0,.16.02.92.07,1.71.69,2.22,1.66l-1.94.02c-.16-.15-.33-.23-.44-.23-.48,0-1.4,1.1-1.4,3.14s.92,3.14,1.4,3.14c.28,0,.74-.41,1.05-1.22h1.74Z"/>
      <path class="cls-2" d="M190.22,6.52c-.44,1.55-1.43,2.6-2.65,2.68-.05.02-.1.02-.16.02-.05,0-.12,0-.16-.02-1.68-.12-2.91-2.06-2.91-4.59s1.23-4.48,2.91-4.59c.05-.02.12-.02.16-.02.07,0,.12,0,.16.02.92.07,1.73.69,2.22,1.66h-1.96c-.15-.15-.31-.21-.43-.21-.48,0-1.4,1.1-1.4,3.14s.92,3.14,1.4,3.14c.3,0,.76-.41,1.05-1.22l1.76-.02Z"/>
      <path class="cls-2" d="M196.36,6.52c-.44,1.55-1.43,2.6-2.65,2.68-.05.02-.12.02-.16.02s-.12,0-.16-.02c-1.66-.12-2.9-2.06-2.9-4.59s1.23-4.48,2.9-4.59c.05-.02.12-.02.16-.02s.12,0,.16.02c.94.07,1.73.69,2.22,1.65l-1.94.02c-.16-.15-.33-.21-.44-.21-.48,0-1.38,1.1-1.38,3.14s.91,3.14,1.38,3.14c.3,0,.76-.43,1.09-1.23h1.73Z"/>
      <path class="cls-2" d="M202.5,6.5c-.43,1.56-1.42,2.62-2.63,2.7-.05.02-.12.02-.16.02-.07,0-.12,0-.18-.02-1.66-.12-2.9-2.06-2.9-4.59s1.23-4.48,2.9-4.59c.07-.02.12-.02.18-.02.05,0,.12,0,.16.02.92.07,1.71.69,2.21,1.65h-1.96c-.15-.13-.3-.2-.41-.2-.48,0-1.4,1.1-1.4,3.14s.92,3.14,1.4,3.14c.28,0,.76-.43,1.07-1.23l1.73-.02Z"/>
      <path class="cls-2" d="M208.67,6.5c-.46,1.56-1.45,2.62-2.67,2.7-.05.02-.1.02-.16.02-.05,0-.12,0-.16-.02-1.68-.12-2.91-2.06-2.91-4.59s1.23-4.48,2.91-4.59c.05-.02.12-.02.16-.02.07,0,.12,0,.16.02.92.05,1.71.67,2.21,1.63l-1.96.02c-.15-.13-.3-.2-.41-.2-.48,0-1.4,1.1-1.4,3.14s.92,3.14,1.4,3.14c.3,0,.76-.43,1.07-1.25h1.76Z"/>
      <path class="cls-2" d="M214.81,6.49c-.44,1.56-1.43,2.63-2.67,2.72-.05.02-.12.02-.16.02s-.12,0-.16-.02c-1.66-.12-2.91-2.06-2.91-4.59s1.25-4.48,2.91-4.59c.05-.02.12-.02.16-.02s.12,0,.16.02c.92.05,1.71.67,2.22,1.63h-1.99c-.15-.12-.28-.18-.4-.18-.48,0-1.38,1.1-1.38,3.14s.91,3.14,1.38,3.14c.3,0,.77-.43,1.09-1.25l1.74-.02Z"/>
      <path class="cls-2" d="M220.95,6.49c-.44,1.55-1.42,2.62-2.63,2.72-.07.02-.13.02-.2.02-.05,0-.12,0-.16-.02-1.66-.12-2.9-2.06-2.9-4.59s1.23-4.48,2.9-4.59c.05-.02.12-.02.16-.02.07,0,.12,0,.18.02.91.07,1.68.67,2.19,1.61l-1.98.02c-.15-.12-.28-.18-.4-.18-.46,0-1.38,1.1-1.38,3.14s.92,3.14,1.38,3.14c.3,0,.77-.43,1.09-1.27h1.74Z"/>
      <path class="cls-2" d="M227.09,6.47c-.44,1.58-1.43,2.65-2.65,2.73-.05.02-.1.02-.16.02s-.12,0-.18-.02c-1.66-.12-2.9-2.06-2.9-4.59s1.23-4.48,2.9-4.59c.07-.02.12-.02.18-.02s.12,0,.16.02c.91.05,1.7.66,2.19,1.61h-1.99c-.13-.12-.26-.16-.36-.16-.48,0-1.4,1.1-1.4,3.14s.92,3.14,1.4,3.14c.3,0,.76-.43,1.07-1.27l1.74-.02Z"/>
      <path class="cls-2" d="M233.25,6.47c-.44,1.58-1.43,2.65-2.67,2.73-.05.02-.12.02-.16.02s-.12,0-.16-.02c-1.66-.12-2.91-2.06-2.91-4.59s1.25-4.48,2.91-4.59c.05-.02.12-.02.16-.02s.12,0,.16.02c.91.05,1.68.64,2.19,1.6h-2.01c-.13-.1-.25-.15-.35-.15-.48,0-1.4,1.1-1.4,3.14s.92,3.14,1.4,3.14c.3,0,.77-.44,1.1-1.28h1.73Z"/>
      <path class="cls-2" d="M239.39,6.45c-.43,1.58-1.42,2.67-2.67,2.75-.05.02-.1.02-.16.02-.05,0-.12,0-.16-.02-1.66-.12-2.9-2.06-2.9-4.59s1.23-4.48,2.9-4.59c.05-.02.12-.02.16-.02.07,0,.12,0,.16.02.92.05,1.7.64,2.21,1.6h-2.02c-.13-.1-.25-.15-.35-.15-.46,0-1.38,1.1-1.38,3.14s.92,3.14,1.38,3.14c.3,0,.77-.44,1.1-1.28l1.73-.02Z"/>
      <path class="cls-2" d="M245.55,6.45c-.44,1.58-1.43,2.67-2.67,2.75-.05.02-.1.02-.16.02s-.12,0-.18-.02c-1.66-.12-2.9-2.06-2.9-4.59s1.23-4.48,2.9-4.59c.07-.02.12-.02.18-.02s.12,0,.16.02c.91.05,1.68.64,2.17,1.58h-2.02c-.12-.1-.23-.13-.31-.13-.48,0-1.4,1.1-1.4,3.14s.92,3.14,1.4,3.14c.3,0,.77-.44,1.09-1.3h1.74Z"/>
      <path class="cls-2" d="M251.7,6.44c-.44,1.6-1.45,2.68-2.68,2.77-.05.02-.12.02-.16.02s-.12,0-.16-.02c-1.68-.12-2.91-2.06-2.91-4.59s1.23-4.48,2.91-4.59c.05-.02.12-.02.16-.02s.12,0,.16.02c.91.05,1.68.64,2.19,1.58h-2.04c-.12-.1-.21-.13-.31-.13-.48,0-1.4,1.1-1.4,3.14s.92,3.14,1.4,3.14c.3,0,.77-.44,1.09-1.3l1.76-.02Z"/>
      <path class="cls-2" d="M257.84,6.44c-.44,1.6-1.43,2.68-2.68,2.77-.05.02-.1.02-.16.02-.05,0-.12,0-.16-.02-1.66-.12-2.91-2.06-2.91-4.59s1.25-4.48,2.91-4.59c.05-.02.12-.02.16-.02.07,0,.12,0,.16.02.91.05,1.68.63,2.19,1.56h-2.06c-.12-.08-.21-.12-.3-.12-.48,0-1.38,1.1-1.38,3.14s.91,3.14,1.38,3.14c.31,0,.79-.44,1.1-1.32h1.74Z"/>
      <path class="cls-2" d="M263.98,6.42c-.43,1.6-1.42,2.68-2.65,2.78-.07.02-.13.02-.2.02-.05,0-.12,0-.16-.02-1.66-.12-2.9-2.06-2.9-4.59s1.23-4.48,2.9-4.59c.05-.02.12-.02.16-.02.07,0,.12,0,.18.02.89.07,1.66.64,2.17,1.56h-2.06c-.12-.08-.21-.12-.3-.12-.46,0-1.38,1.1-1.38,3.14s.92,3.14,1.38,3.14c.31,0,.79-.44,1.1-1.32l1.74-.02Z"/>
      <path class="cls-2" d="M270.12,6.42c-.43,1.61-1.42,2.7-2.67,2.78-.05.02-.12.02-.16.02s-.12,0-.16-.02c-1.68-.12-2.91-2.06-2.91-4.59s1.23-4.48,2.91-4.59c.05-.02.12-.02.16-.02s.12,0,.16.02c.89.05,1.65.64,2.16,1.55h-2.06c-.1-.07-.18-.1-.26-.1-.48,0-1.4,1.1-1.4,3.14s.92,3.14,1.4,3.14c.3,0,.79-.46,1.1-1.33h1.73Z"/>
      <path class="cls-2" d="M276.28,6.4c-.43,1.61-1.43,2.72-2.68,2.8-.05.02-.1.02-.16.02-.05,0-.12,0-.16-.02-1.66-.12-2.91-2.06-2.91-4.59s1.25-4.48,2.91-4.59c.05-.02.12-.02.16-.02.07,0,.12,0,.16.02.89.05,1.66.64,2.16,1.55h-2.04c-.1-.07-.2-.1-.28-.1-.48,0-1.38,1.1-1.38,3.14s.91,3.14,1.38,3.14c.31,0,.81-.46,1.12-1.33l1.73-.02Z"/>
      <path class="cls-2" d="M282.42,6.4c-.43,1.6-1.42,2.72-2.67,2.8-.07.02-.12.02-.18.02-.05,0-.12,0-.16-.02-1.66-.12-2.9-2.06-2.9-4.59s1.23-4.48,2.9-4.59c.05-.02.12-.02.16-.02.07,0,.12,0,.18.02.89.07,1.65.64,2.16,1.53h-2.09c-.1-.05-.18-.08-.25-.08-.46,0-1.38,1.1-1.38,3.14s.92,3.14,1.38,3.14c.31,0,.81-.46,1.12-1.35h1.73Z"/>
      <path class="cls-2" d="M294.73,6.39c-.44,1.63-1.45,2.73-2.7,2.81-.05.02-.1.02-.16.02-.05,0-.12,0-.16-.02-1.68-.12-2.91-2.06-2.91-4.59s1.23-4.48,2.91-4.59c.05-.02.12-.02.16-.02.07,0,.12,0,.16.02.87.05,1.65.61,2.14,1.51h-2.09c-.08-.05-.15-.07-.21-.07-.48,0-1.4,1.1-1.4,3.14s.92,3.14,1.4,3.14c.31,0,.81-.46,1.1-1.37h1.76Z"/>
      <path class="cls-2" d="M300.87,6.37c-.43,1.63-1.45,2.75-2.7,2.83-.05.02-.12.02-.16.02s-.12,0-.16-.02c-1.66-.12-2.91-2.06-2.91-4.59s1.25-4.48,2.91-4.59c.05-.02.12-.02.16-.02s.12,0,.16.02c.89.05,1.65.61,2.16,1.51h-2.09c-.08-.05-.16-.07-.23-.07-.46,0-1.38,1.1-1.38,3.14s.92,3.14,1.38,3.14c.31,0,.81-.46,1.12-1.37l1.74-.02Z"/>
      <path class="cls-2" d="M307.01,6.37c-.43,1.63-1.43,2.75-2.68,2.83-.05.02-.12.02-.16.02-.07,0-.12,0-.18-.02-1.66-.12-2.9-2.06-2.9-4.59s1.23-4.48,2.9-4.59c.07-.02.12-.02.18-.02.05,0,.12,0,.16.02.87.05,1.63.61,2.12,1.5h-2.09c-.08-.03-.15-.05-.2-.05-.48,0-1.4,1.1-1.4,3.14s.92,3.14,1.4,3.14c.3,0,.81-.48,1.1-1.38h1.74Z"/>
      <path class="cls-2" d="M313.17,6.35c-.43,1.65-1.45,2.77-2.7,2.85-.05.02-.1.02-.16.02-.05,0-.12,0-.16-.02-1.68-.12-2.91-2.06-2.91-4.59s1.23-4.48,2.91-4.59c.05-.02.12-.02.16-.02.07,0,.12,0,.16.02.87.05,1.61.59,2.12,1.48l-2.09.02c-.07-.03-.13-.05-.2-.05-.48,0-1.4,1.1-1.4,3.14s.92,3.14,1.4,3.14c.31,0,.82-.48,1.12-1.4h1.74Z"/>
      <path class="cls-2" d="M319.31,6.35c-.43,1.65-1.45,2.77-2.7,2.85-.05.02-.12.02-.16.02s-.12,0-.16-.02c-1.66-.12-2.91-2.06-2.91-4.59s1.25-4.48,2.91-4.59c.05-.02.12-.02.16-.02s.12,0,.16.02c.87.05,1.63.59,2.14,1.48h-2.17s-.1-.03-.13-.03c-.48,0-1.38,1.1-1.38,3.14s.91,3.14,1.38,3.14c.31,0,.82-.48,1.14-1.4h1.73Z"/>
      <path class="cls-2" d="M325.45,6.34c-.41,1.63-1.42,2.77-2.68,2.86-.07.02-.12.02-.18.02-.05,0-.12,0-.16-.02-1.66-.12-2.9-2.06-2.9-4.59s1.23-4.48,2.9-4.59c.05-.02.12-.02.16-.02.07,0,.12,0,.18.02.86.07,1.6.61,2.12,1.47l-2.21.02s-.07-.03-.1-.03c-.46,0-1.38,1.1-1.38,3.14s.92,3.14,1.38,3.14c.31,0,.84-.49,1.14-1.42h1.73Z"/>
      <path class="cls-2" d="M288.56,6.39c-.41,1.63-1.42,2.73-2.67,2.81-.05.02-.12.02-.16.02-.07,0-.12,0-.18-.02-1.66-.12-2.9-2.06-2.9-4.59s1.23-4.48,2.9-4.59c.07-.02.12-.02.18-.02.05,0,.12,0,.16.02.89.05,1.65.63,2.16,1.53h-2.07c-.1-.05-.18-.08-.25-.08-.48,0-1.4,1.1-1.4,3.14s.92,3.14,1.4,3.14c.3,0,.79-.46,1.1-1.35l1.73-.02Z"/>
    </g>
  </g>
</svg>