<?xml version="1.0" encoding="UTF-8"?>
<svg id="Layer_2" data-name="Layer 2" xmlns="http://www.w3.org/2000/svg" viewBox="0 0 191.21 293.75">
  <defs>
    <style>
      .cls-1 {
        fill: #b0a1b4;
      }

      .cls-2 {
        fill: #574560;
      }

      .cls-3 {
        fill: #655470;
      }
    </style>
  </defs>
  <g id="Layer_1-2" data-name="Layer 1">
    <g>
      <path class="cls-1" d="M158.17,224.21c-.95,0-1.85-.59-2.19-1.54L78.28,9.21c-.44-1.21.18-2.55,1.39-2.99,1.21-.44,2.55.18,2.99,1.39l77.7,213.47c.44,1.21-.18,2.55-1.39,3-.26.09-.53.14-.8.14h0Z"/>
      <path class="cls-1" d="M119.29,257.19c-1.29,0-2.33-1.05-2.33-2.34v-26.33c0-1.3,1.05-2.34,2.33-2.34s2.33,1.04,2.33,2.34v26.33c0,1.29-1.04,2.34-2.33,2.34h0Z"/>
      <path class="cls-3" d="M190.91,291.71c-2.46-2.82-5.67-4.87-9.26-5.91l-6.72-1.94c-19.85-5.76-37.25-17.88-49.52-34.51-.74-.99-1.91-1.58-3.15-1.58h-5.94c-1.24,0-2.41.59-3.15,1.58-12.27,16.63-29.68,28.76-49.52,34.51l-6.72,1.94c-3.59,1.04-6.8,3.1-9.26,5.91-.32.36-.39.87-.19,1.31.2.44.63.72,1.11.72h141.4c.48,0,.91-.28,1.11-.72.2-.44.12-.95-.19-1.31h0Z"/>
      <path class="cls-2" d="M119.36,234.46c-15.92,0-31.48-3.15-46.24-9.35-14.99-6.3-28.3-15.39-39.55-27.02-11.68-12.06-20.54-26.24-26.33-42.15C1.44,140.03-.89,123.47.3,106.72c1.15-16.15,5.51-31.66,12.94-46.13,7.43-14.44,17.5-27,29.94-37.32C56.12,12.54,70.99,4.78,87.38.21c3.03-.84,6.18.93,7.03,3.96.85,3.03-.93,6.18-3.96,7.03-29.35,8.19-53.16,27.58-67.05,54.61-13.7,26.65-15.68,58.08-5.44,86.23,10.25,28.15,31.96,50.94,59.58,62.55,28.02,11.79,58.73,11.34,86.48-1.26,2.87-1.3,6.25-.03,7.55,2.84,1.3,2.87.03,6.25-2.84,7.55-15.49,7.03-31.86,10.64-48.67,10.75h-.7Z"/>
    </g>
  </g>
</svg>