<?xml version="1.0" encoding="UTF-8"?>
<svg id="Layer_2" data-name="Layer 2" xmlns="http://www.w3.org/2000/svg" viewBox="0 0 191.95 191.95">
  <defs>
    <style>
      .cls-1 {
        fill: #f6f3f5;
      }

      .cls-2 {
        fill: #9ab7d1;
      }
    </style>
  </defs>
  <g id="Layer_1-2" data-name="Layer 1">
    <g>
      <path class="cls-2" d="M63.16,5.81C13.36,23.94-12.31,79,5.81,128.8c18.12,49.8,73.18,75.47,122.98,57.34,49.8-18.12,75.47-73.18,57.35-122.98C168.02,13.36,112.95-12.31,63.16,5.81h0Z"/>
      <path class="cls-1" d="M38.98,53.84l.26-.18c.47-.31,1.29-.76,1.8-1l1.73-.8c.52-.24,1.11-.81,1.32-1.27.21-.46.38-.86.4-.89.01-.04.03-.24.03-.46,0-.23-.32-.37-.72-.31-.4.06-.69-.09-.63-.32.06-.24-.31-.66-.81-.93l-1.04-.54c-.5-.27-.77-.93-.59-1.47l.12-.35c.18-.54.02-.87-.36-.73-.38.14-.6-.05-.5-.45.11-.39-.01-.59-.27-.48-.26.13-.69.33-.96.46-.27.13-.66.67-.86,1.21l-.42,1.11c-.2.53-.12,1.25.18,1.59.3.33.62.59.72.55.09-.03.4-.14.69-.26.29-.1.46.27.38.84l-.11.8c-.08.57-.34,1.23-.59,1.5-.25.26-.42.48-.4.49.03.01.29.13.58.26.29.13.26.62-.06,1.08l-.17.26c-.32.48-.19.59.28.28h0Z"/>
      <path class="cls-1" d="M15.43,45.33l.72-.91c.35-.45.7-1.23.77-1.75.07-.53.13-.98.14-1,0-.04.31-.42.69-.85l2.5-2.89c.37-.44.77-1.12.88-1.52.07-.24.22-.6.39-.96-3.88,4.78-7.28,9.91-10.17,15.32.14-.1.3-.28.47-.49l1.19-1.49c.36-.45.79-1.26.97-1.8l.31-.95c.17-.54.46-1.14.64-1.35.18-.21.22.04.09.54-.13.51.05.55.41.1h0Z"/>
      <path class="cls-1" d="M6.03,64.52s.28-.48.57-.96l.26-.45c.29-.49.63-1.35.76-1.9l.38-1.58c.13-.55.43-1.43.65-1.95l1.69-3.91c.23-.53.14-.58-.2-.12l-.82,1.14c-1.83,3.86-3.4,7.83-4.71,11.89.29-.48.66-1.05.89-1.39.26-.39.5-.73.53-.77h0Z"/>
      <path class="cls-1" d="M37.33,49c-.31-.18-.87-.18-1.26.01-.39.19-.78.63-.87.96-.1.33-.5.67-.91.75-.41.06-.75.59-.76,1.16l-.02.81c-.01.57-.01,1.05,0,1.07.02.01.11.13.21.24.1.12.46.12.79-.01.33-.13.98-.49,1.45-.81.46-.33.9-.64.97-.68.07-.05.25-.54.39-1.09l.29-1.08c.15-.55.02-1.14-.29-1.32h0Z"/>
      <path class="cls-1" d="M26.84,29.49l-.82,1.49c-.27.5-.47.91-.44.93.03.01.42.13.85.27.43.13.48.59.1,1.02l-5.61,6.3c-.38.42-.71.81-.73.85s-.28.48-.56.98l-3.21,5.57c-.29.49-.51,1.36-.5,1.93l.02.81c.01.57.32.67.68.23l6.45-7.89c.36-.44.7-.85.75-.9.05-.04.43-.41.83-.81l1.96-1.94c.41-.41.78-.77.83-.82.05-.05.46-.36.92-.71l3.15-2.34c.46-.35,1.06-1.03,1.33-1.53l1.05-1.9c.28-.49.89-1.16,1.36-1.48l1.91-1.3c.47-.32,1.05-1.01,1.29-1.52l.37-.82c.24-.52.69-1.33,1.01-1.81l2.26-3.4c.32-.47.41-.99.2-1.14-.2-.16-.4-.3-.43-.32-.03-.02-.49.12-1.02.33l-1.96.75c-.53.2-1.06.4-1.18.45-.11.04-.64.25-1.17.47l-1.46.58c-2.87,2.36-5.59,4.87-8.15,7.52-.04.06-.07.13-.11.18h0Z"/>
      <path class="cls-1" d="M24.66,160.12s-.16-.45-.34-.99l-.37-1.09c-.18-.54-.54-1.4-.79-1.92l-.77-1.59c-.25-.5-.74-1.3-1.08-1.75l-.29-.37c-.35-.45-.7-1.29-.78-1.85l-.11-.76c-.08-.57.01-1.17.21-1.34.2-.17.15-.72-.11-1.23l-1.56-3.05c-.26-.5-.75-1.3-1.09-1.75l-2.09-2.79c-.34-.46-.75-1.16-.9-1.56-.15-.4-.19-.77-.07-.82q.11-.05,0,0c-.12.05-.26-.27-.31-.72-.06-.44-.08-.84-.06-.86.02-.03.27-.33.55-.68.28-.35.5-1.11.5-1.67v-.73c0-.57-.29-1.4-.64-1.85l-.32-.42c-.35-.45-.94-.69-1.32-.55-.38.15-.71.3-.74.31-.03.01-.38-.31-.78-.72l-.6-.6c-.4-.41-.91-.62-1.14-.46-.22.14-.61.12-.85-.08-.25-.19-.84-.53-1.32-.76-.48-.22-.88-.41-.9-.41-.01-.01-.24-.42-.51-.93l-.39-.72c-.27-.5-.66-1.11-.87-1.32-.21-.23-.57-.8-.8-1.26-.09-.17-.19-.35-.29-.51.62,2.17,1.32,4.33,2.1,6.49,4.49,12.33,11.24,23.18,19.62,32.25-.07-.12-.15-.23-.24-.33-.29-.31-.53-.58-.53-.59h0Z"/>
      <path class="cls-1" d="M173.21,68.28c.25.44.62,1.11.82,1.45.2.36.78.44,1.29.19l1.62-.81c.51-.26.88-.93.82-1.49l-.07-.63c-.06-.58-.16-1.5-.22-2.07l-.03-.26c-.06-.57-.33-1.44-.59-1.94l-2.28-4.38c-.26-.5-.52-.45-.58.12l-.33,3.39c-.06.57-.41,1.39-.78,1.81l-.12.15c-.37.42-.81.93-.96,1.11-.16.18-.05.73.22,1.23l.23.4c.28.5.71,1.27.96,1.72h0Z"/>
      <path class="cls-1" d="M172.31,70.95c-.07-.58-.51-1.31-.97-1.65l-.52-.37c-.46-.33-1.22-.87-1.69-1.21l-3.03-2.16c-.46-.33-.87-.63-.91-.64-.03-.01-.48-.26-.98-.51l-.48-.26c-.51-.27-1.32-.5-1.82-.51-.49-.01-.54.28-.11.64l3.63,3.06c.44.37.83.69.87.73.04.03.3.28.58.57.28.27.84.82,1.25,1.23l2.85,2.81c.4.4.93.67,1.17.59.24-.06.38-.59.3-1.16l-.15-1.17h0Z"/>
      <path class="cls-1" d="M174.1,74.78l.61.06c.57.06,1.42.15,1.89.21.48.05,1.33.05,1.89-.01l3.12-.35c.57-.06,1.06-.12,1.09-.12.03-.01-.02-.23-.11-.49-.09-.27-.2-.48-.22-.48-.03.01-.5.17-1.04.33l-.14.04c-.55.17-1.42.13-1.94-.1l-.29-.13c-.52-.23-1.41-.36-1.98-.3l-.67.08c-.57.06-1.49.17-2.06.22l-.52.06c-.57.06-.95.28-.84.49.1.21.65.41,1.22.48h0Z"/>
      <path class="cls-1" d="M88.14,46.9s-.46.13-1,.3l-3.6,1.04c-.55.17-1.43.48-1.96.68l-4.51,1.81c-.53.22-1.43.37-2,.36l-.87-.03c-.57-.01-.88-.46-.69-1l.94-2.7c.19-.54.73-1.25,1.2-1.56l.96-.66c.47-.32,1.25-.32,1.73-.01l.21.14c.48.31,1.29.37,1.81.14l1.86-.85c.52-.23,1.4-.32,1.96-.21l2.16.46c.56.13,1.02.22,1.02.22,0,.01.18.42.4.93.21.51.39.93.38.93h0ZM154.12,52.63l.29.41c.33.48.89.5,1.25.06l.32-.4c.36-.44.99-.46,1.38-.05l2.88,2.97c.4.41.91,1.03,1.13,1.38.22.33.41.63.41.63,0,.01.16.45.35.99l.31.89c.19.54.55,1.07.81,1.2.26.12.49.22.53.23.03.01.32.41.64.89l1.67,2.47c.32.48.98,1.11,1.46,1.41l1.12.71c.48.3.66.14.39-.36l-1.63-3.02c-.27-.5-.86-1.2-1.31-1.54l-.57-.44c-.45-.36-1.05-1.04-1.34-1.54l-.77-1.34c-.29-.49-.52-.9-.52-.9,0-.01-.18-.45-.39-.98l-.39-.99c-.21-.53,0-.69.47-.36l1.54,1.07c.47.33.85.6.86.6,0,.01.31.37.68.8l.48.58c.37.44.8.35.97-.21l.31-1.03c.17-.54.3-.99.31-1,0,0,.02-.31.03-.67.01-.36-.26-1.02-.61-1.47l-1.53-1.95c-.35-.45-1.03-1.08-1.51-1.39l-2.05-1.35c-.48-.31-.83-1.03-.79-1.61l.09-1.18c.04-.57.34-.64.67-.18l.05.08c.33.46.56.99.53,1.17-.03.18.12.57.34.84.22.28.6.46.84.39s.34-.32.22-.54c-.12-.22-.44-.81-.71-1.31l-.47-.86c-.27-.51-.15-1.23.27-1.62l.48-.45c.42-.39.83-1.17.91-1.74l.23-1.58c.08-.57.05-1.48-.07-2.04l-.05-.23c-.12-.55-.23-1.08-.25-1.17-.02-.08-.24-.57-.49-1.08l-.17-.35c-.25-.51-.76-1.29-1.12-1.74l-.41-.5c-.36-.44-.67-.81-.68-.82-.01-.01-.28-.26-.59-.54-.31-.28-.62-.53-.68-.54-.06-.01-.27-.05-.48-.09-.21-.03-.74-.21-1.19-.39-.45-.18-.87-.69-.93-1.13-.06-.44-.12-.84-.13-.89,0-.05-.15-.22-.33-.38-.17-.16-.35-.28-.39-.28-.04,0-.44.05-.89.1-.45.05-1.18-.21-1.61-.58l-.22-.18c-.44-.37-.69-.98-.57-1.36.12-.38.24-.72.25-.76.01-.03.15.06.3.2.15.14.29.3.3.35.01.05.04.22.08.38.03.15.27.37.54.49.26.12.56.25.65.29.09.04.11-.16.03-.45-.08-.29.06-.47.29-.4.24.06.73.4,1.11.76.37.35.85.71,1.06.79.21.08.72.46,1.15.84l.2.18c.42.38.89.86,1.04,1.06.15.2.4.29.56.2.16-.09-.01-.52-.37-.96l-.61-.74c-.36-.44-1.05-1.05-1.53-1.36l-1.22-.78c-.48-.31-1.1-.97-1.38-1.46l-.74-1.32c-.28-.5-.26-.81.04-.7.3.11.32-.2.04-.7l-1.01-1.78c-.17-.3-.44-.71-.7-1.07-10.14-7.58-21.7-13.11-33.96-16.23l-1.09.3c-.55.15-1.07.28-1.15.3-.08.02-.6.13-1.16.25l-2.34.5c-.56.12-1.47.32-2.03.44l-1.98.43c-.56.12-1.04.24-1.08.26-.03.02-.45.3-.93.61l-4.98,3.28c-.48.31-.89.58-.93.6-.04.01-.5.21-1.02.43l-9.76,4.07c-.53.22-.96.42-.96.44,0,.03,0,.05,0,.06,0,0-.04.42-.09.92-.05.5-.46,1.2-.91,1.54l-5.12,3.9c-.45.35-1.28.73-1.84.86l-1.55.35c-.56.13-1.29-.14-1.64-.6l-.36-.48c-.34-.45-.19-1,.34-1.21l7.77-3.07c.53-.21.61-.48.18-.6-.43-.12-.82-.23-.87-.24-.05-.01-.55.04-1.11.11l-6.89.9c-.57.07-1.49.08-2.06,0l-.69-.09c-.57-.07-1.03-.13-1.04-.12,0,0-.46.13-1.01.28l-3.34.92c-.55.15-1.41.5-1.91.78l-6.01,3.33c-.5.28-.92.51-.93.51s-.4.27-.88.6l-.71.48c-.47.32-1.11.97-1.43,1.45h0c-.31.49-.6.91-.63.95-.03.04-.34.44-.69.9l-3.57,4.64c-.35.45-.96,1.03-1.36,1.29-.4.24-1.07.77-1.49,1.16l-2.25,2.1c-.42.39-.66,1.16-.53,1.71l.37,1.62c.13.57.5,1.04.83,1.08.33.05.95-.06,1.38-.24.43-.18,1.07-.68,1.43-1.12h0c.36-.45.96-.93,1.34-1.07.38-.15.98.09,1.34.54l1.15,1.39c.36.44,1.07.58,1.57.31l1.39-.77c.5-.27.96-.95,1.02-1.52l.1-.9c.06-.57.51-1.26,1-1.56l.26-.15c.49-.28.94-.78,1-1.11.06-.32-.35-.64-.92-.69h-.19c-.57-.08-.92-.57-.78-1.12l.09-.36c.14-.55.63-1.29,1.09-1.63l.25-.19c.46-.34.84-.62.84-.63,0,0,.37-.31.81-.67l.51-.42c.44-.36.96-1.1,1.15-1.64l.05-.13c.2-.54.8-1.12,1.34-1.3l1.32-.44c.54-.18,1.07-.14,1.18.08.11.22-.16.71-.6,1.08l-2.79,2.37c-.43.37-.76,1.14-.74,1.71l.08,1.45c.03.58.49.89,1.03.69l7.24-2.54c.54-.19.55-.15.03.08l-5.02,2.25c-.52.23-.98.89-1.02,1.45l-.06.91c-.04.57-.46.98-.93.9-.47-.08-1.02.3-1.23.84l-.41,1.05c-.21.53-.38.98-.39.99,0,.01-.25.37-.55.8-.3.42-.87.78-1.27.78s-1.14.21-1.65.46l-5.22,2.64c-.51.26-1.29.37-1.73.27-.44-.12-.7-.54-.57-.96.13-.42.27-1.23.31-1.8v-.05c.05-.57-.28-.73-.72-.37l-.57.46c-.44.36-.76,1.11-.7,1.68l.14,1.3c.06.57-.31,1.26-.81,1.52l-1.96,1.04c-.5.27-1.03.86-1.17,1.34-.14.46-.28.87-.31.91-.03.03-.21.23-.39.45-.19.22-.35.41-.37.44-.02.01-.3.4-.65.86l-1.42,1.9c-.34.46-1.08.94-1.63,1.05h-.04c-.56.12-.93.44-.82.69.11.27.04.55-.15.62-.19.08-.74.22-1.21.33-.48.12-.84.46-.8.77.04.32.45.53.92.46.47-.05,1.08.13,1.37.4.28.28.59.98.68,1.53l.18,1.09c.09.55-.27,1.18-.8,1.38l-2.35.87c-.54.19-1.41.51-1.94.72-.53.19-.93.82-.88,1.39l.1,1.09c.05.57.02,1.49-.07,2.06l-.06.4c-.09.55-.02,1.03.16,1.04.18,0,.37.31.43.67.05.35.44.59.85.51.42-.06.84-.13.94-.15.1-.01.46.14.79.35.33.21.98.1,1.45-.22l.76-.53c.47-.33,1.19-.93,1.6-1.31h.01c.41-.41,1-1.12,1.31-1.61l.17-.26c.31-.48.38-.98.16-1.11-.22-.14-.23-.67,0-1.2l.11-.28c.22-.53.75-1.25,1.19-1.61.43-.37.8-.68.81-.71.01-.03.08-.13.14-.24.06-.12.23-.64.36-1.2.13-.54.71-1.04,1.27-1.11l.51-.06c.57-.06,1.37-.44,1.8-.82l1.51-1.38c.42-.39,1.16-.44,1.64-.13l1.11.72c.48.31,1.32.67,1.88.81l2.51.58c.55.14,1.05.67,1.09,1.2.05.53.33.59.62.15.3-.45.41-1.11.25-1.48-.16-.36.16-.75.7-.85.55-.1.55-.32,0-.5l-4.5-1.48c-.54-.18-1.21-.66-1.49-1.07-.28-.4-.2-.96.18-1.26.38-.3,1.13-.39,1.67-.22l4.51,1.44c.54.18,1.19.73,1.44,1.25l1.48,3c.25.51.92.95,1.49.98h.05c.57.03,1.04.04,1.05.03,0,0,.39-.28.85-.62l.73-.54c.46-.33.49-.93.07-1.31l-1.27-1.17c-.42-.39-.35-.91.15-1.18l1.23-.64c.51-.27,1.25-.17,1.66.23l2.45,2.39c.41.4,1.18.55,1.71.35l5.76-2.2c.53-.21.95.1.92.67l-.11,2.66c-.02.58-.05,1.05-.06,1.07,0,.03-.17.48-.36,1.02l-.07.18c-.19.54-.79,1.13-1.33,1.32l-1.93.68c-.54.19-1.44.41-2.01.48l-6.07.76c-.57.08-1.08.14-1.13.14-.06.01-.11.01-.12.01s-.45.17-.99.36l-7.26,2.62c-.54.19-1.31.03-1.73-.36l-3.08-2.94c-.41-.4-1.17-.51-1.69-.28l-6.08,2.87c-.52.24-.95.45-.97.46-.02,0-.41.27-.89.59l-6.02,4.07c-.47.31-1.11.96-1.42,1.45l-.05.06c-.31.49-.81,1.27-1.12,1.75l-.05.08c-.31.49-.56.89-.56.9,0,.03,0,.5,0,1.07v.68c0,.57-.24,1.44-.52,1.93l-2.01,3.48c-.29.5-.6,1.36-.69,1.93l-.84,5c-.09.57-.02,1.47.15,2.01l1.36,4.1c.18.54.4,1.45.48,2.01l.23,1.52c.08.57.53,1.29.99,1.61.46.32.84.59.85.59s.42.22.93.49l2.19,1.16c.5.27,1.37.62,1.91.77l2.05.58c.55.15,1.42.4,1.94.55.52.14,1.35.03,1.84-.26l3.18-1.86c.49-.28,1.23-.85,1.63-1.25l1.25-1.23c.41-.4.75-.73.76-.73.01-.01.49-.09,1.05-.18l.57-.09c.56-.09,1.4.12,1.86.45l.73.54c.46.33,1.26.41,1.77.17l1.13-.55c.51-.24,1.33-.21,1.81.1l.04.03c.48.3.86,1.02.84,1.58l-.08,2.15c-.02.58-.04,1.07-.04,1.09,0,.03.38.31.86.63l3.21,2.19c.47.32,1.14.95,1.49,1.4l1.62,2.12c.35.45.85,1.23,1.12,1.74l.56,1.05c.27.5.49.91.49.91,0,0-.06.48-.15,1.04l-.2,1.38c-.08.55.04,1.44.28,1.97l1.16,2.53c.24.51.79,1.25,1.23,1.61l3.05,2.56c.44.37,1.11,1.02,1.49,1.44l2.63,2.94c.38.44,1.07,1.05,1.53,1.39l2.37,1.68c.46.33,1.01.96,1.2,1.41.2.45.36.82.37.84,0,.01.41.18.9.39.49.19,1.3.13,1.8-.14l1.67-.94c.5-.28.91-.51.92-.51s.42-.22.92-.5l1.79-.96c.5-.27.92-.51.93-.53.01-.03.3-.41.63-.87l1.63-2.24c.34-.46.72-1.3.86-1.85l.57-2.3c.14-.55.06-1.44-.17-1.95l-.27-.62c-.23-.51-.1-1.29.29-1.71l.78-.85c.39-.42.47-1.17.19-1.67l-1.56-2.79c-.28-.5-.25-1.3.06-1.77l3.09-4.69c.31-.48.35-1.27.07-1.77l-.97-1.79c-.27-.5-.5-.91-.5-.91,0,0-.22-.42-.49-.93l-2.68-5.04c-.27-.51-.34-1.36-.16-1.9l1.3-3.97c.18-.55.47-1.44.64-1.98l.31-.94c.18-.55.6-1.36.94-1.83l.12-.17c.34-.45.61-.84.61-.84h0s.2-.44.43-.95l2.22-4.92c.24-.51.48-1.4.54-1.97l.21-1.83c.06-.57.12-1.03.12-1.04,0,0-.31-.23-.7-.5-.39-.28-1.1-.24-1.58.05l-3.35,2.15c-.48.31-.88.55-.88.55,0,0-.45.17-.98.36l-.69.23c-.54.19-1.27-.01-1.63-.46l-.4-.49c-.36-.45-1.08-.99-1.61-1.2l-2.2-.9c-.53-.21-1.31-.69-1.73-1.08l-1.73-1.54c-.42-.39-.93-1.13-1.12-1.67l-.5-1.38c-.2-.54-.73-1.26-1.18-1.59l-2.03-1.54c-.46-.33-1.11-.99-1.45-1.45l-.03-.04c-.34-.45-.39-1.08-.11-1.38.28-.31.89-.27,1.35.06l1.71,1.26c.46.33,1.15.95,1.53,1.39l2.37,2.65c.38.44,1.07,1.05,1.54,1.38l3.3,2.3c.47.32,1.06,1.02,1.3,1.53l.64,1.31c.25.51.86.71,1.36.44l.4-.22c.5-.27.91-.5.92-.5,0,0,.37-.3.82-.64l5.67-4.46c.45-.35,1.12-.99,1.49-1.43l4.62-5.41c.37-.44.71-1.26.75-1.83l.12-1.79c.04-.57-.39-1.11-.95-1.18l-1.16-.17c-.56-.09-1.31-.33-1.66-.57-.35-.22-.99-.09-1.41.3l-1.67,1.49c-.43.39-1.2.5-1.72.26l-4.02-1.84c-.52-.23-1.1-.77-1.3-1.18-.19-.42.02-1.04.47-1.39s1.19-.35,1.65-.01l.75.57c.46.35,1.3.66,1.86.71l1.38.1c.57.04,1.46-.13,1.97-.36l1.35-.63c.52-.24,1.26-.22,1.64.05.39.27,1.16.4,1.72.27l4-.91c.56-.12,1.02-.23,1.03-.23s.48.06,1.05.15l4.68.75c.56.09,1.47.3,2.02.45l7.11,2.01c.55.15,1.39.53,1.88.84l6.53,4.11c.48.31.88.55.89.57,0,0,.4.26.88.57l1.54,1c.48.32,1.13.21,1.45-.24.32-.45.59-.82.61-.85.01-.03.09-.5.16-1.05.07-.57.13-1.03.13-1.04,0,0-.24-.41-.52-.9l-1.96-3.34c-.29-.49-.38-1.34-.2-1.88l1.55-4.61c.18-.54.72-1.22,1.2-1.53l1.59-1.02c.48-.31,1.28-.33,1.78-.05l3.22,1.76c.5.27,1.18.89,1.5,1.35h0Z"/>
      <path class="cls-1" d="M186.76,66.16l-.98-.73c-.46-.35-.83-.17-.82.4,0,.57-.21.6-.47.1l-.32-.59c-.27-.5-.65-.91-.85-.91h-.52c-.08,0-.14.03-.13.04.01.03.25.45.52.94l.81,1.48c.28.5.87,1.21,1.31,1.57l.92.73c.44.36.9.94,1.02,1.27.12.33.16.87.1,1.2-.06.32.24.69.68.84.35.1.75.17,1.01.15-.51-2.03-1.1-4.06-1.75-6.08-.15-.12-.34-.26-.54-.4h0Z"/>
      <path class="cls-1" d="M111.57,114.4c.04.58.44,1.31.91,1.65l.48.36c.46.33.84.6.85.6,0,.01.42-.22.91-.5l1.35-.76c.5-.27.89-.96.88-1.54l-.09-3.91c-.01-.58-.11-1.5-.21-2.06l-.83-4.42c-.11-.57-.55-1.32-.98-1.7l-.7-.6c-.43-.37-.92-.63-1.09-.58-.17.06-.47.54-.68,1.08l-1.48,3.82c-.21.54-.38.98-.38.98,0,.01-.22.42-.47.94l-.02.03c-.26.51-.27,1.35-.02,1.86l1.01,2.13c.25.51.48,1.4.51,1.97l.04.66h0Z"/>
      <path class="cls-1" d="M191.21,103.13c-.07.57-.04,1.49.07,2.04l.09.46c.02.1.04.21.06.31.95-9.01.62-18.25-1.1-27.46,0,.23.01.46.02.64l.1,2.02c.03.58-.14.93-.36.77-.22-.15-.64-.68-.91-1.18l-.08-.14c-.28-.5-.49-1.38-.48-1.94l.03-1.65c.01-.58-.43-.93-.97-.77-.55.14-1.01.73-1.03,1.3l-.04,1.18c-.02.57-.31.86-.64.67-.33-.21-.66.09-.74.66l-.56,4.18c-.07.57-.16,1.05-.19,1.09-.03.04-.34.42-.7.87l-2.45,3.06c-.36.44-.76,1.26-.89,1.81l-.34,1.41c-.13.55-.05,1.44.19,1.95l.82,1.8c.24.53.53,1.4.65,1.97l.93,4.25c.12.55.22,1.02.23,1.03,0,.01-.04.46-.11.99-.06.54.28.72.75.4l1.6-1.08c.47-.32.89-.6.92-.62.04-.03.25-.24.49-.48.23-.24.43-.45.43-.46,0-.01.2-.45.43-.96l.03-.08c.23-.51.74-1.16,1.14-1.41.4-.24.96-.05,1.24.44l.1.17c.29.5.52.91.53.93,0,0-.04.4-.1.86-.06.48.07.44.3-.08.22-.51.5-.96.62-.99.12-.04.15.4.08.96l-.14,1.07h0Z"/>
      <path class="cls-1" d="M161.75,26.47c.23.46.49,1.14.57,1.5.08.36.03.7-.11.75-.14.05-.02.49.27.98l.33.57c.29.49.65,1.01.81,1.16.16.15.3.28.31.3.01.01.31.35.67.73.36.4.55.35.42-.1-.13-.46-.24-.84-.24-.86,0-.01-.09-.33-.2-.71-.1-.38-.14-.74-.08-.8.06-.06.15-.32.21-.58.02-.11.03-.24.02-.37-1.23-1.26-2.49-2.48-3.78-3.67.32.36.63.79.79,1.11h0Z"/>
    </g>
  </g>
</svg>