<?xml version="1.0" encoding="UTF-8"?>
<svg id="Layer_2" data-name="Layer 2" xmlns="http://www.w3.org/2000/svg" viewBox="0 0 207.85 276.48">
  <defs>
    <style>
      .cls-1 {
        fill: #50334c;
      }

      .cls-2 {
        fill: #6f708d;
      }

      .cls-3 {
        fill: #98a6bd;
      }

      .cls-4 {
        fill: #f4ebe9;
      }
    </style>
  </defs>
  <g id="Layer_1-2" data-name="Layer 1">
    <g>
      <path class="cls-3" d="M138.04,165.22c2.09,0,4.02,1.12,5.06,2.92,7.67,13.35,12.31,30.65,12.31,49.57,0,15.38-3.06,29.7-8.33,41.7-4.55,10.37-14.83,17.07-26.14,17.07h-34.02c-11.32,0-21.59-6.7-26.15-17.07-5.27-12-8.33-26.31-8.33-41.7,0-18.92,4.63-36.23,12.3-49.57,1.04-1.81,2.97-2.92,5.06-2.92h68.24Z"/>
      <path class="cls-2" d="M59.91,178.1c1.44-3.51,3.05-6.84,4.83-9.94,1.04-1.81,2.97-2.93,5.06-2.93h68.24c2.09,0,4.03,1.12,5.06,2.93,1.79,3.11,3.4,6.44,4.84,9.94H59.91Z"/>
      <polygon class="cls-1" points="96.36 129.34 111.49 129.34 111.49 165.22 96.36 165.22 96.36 129.34 96.36 129.34"/>
      <path class="cls-4" d="M207.76,131.42L188.35,6.46c-.58-3.72-3.78-6.46-7.55-6.46H27.05c-3.78,0-6.96,2.74-7.55,6.46L.09,131.42c-.35,2.2.29,4.45,1.74,6.14,1.45,1.7,3.57,2.67,5.8,2.67h192.58c2.23,0,4.35-.97,5.8-2.67,1.45-1.69,2.09-3.94,1.75-6.14h0Z"/>
    </g>
  </g>
</svg>